<?xml version="1.0" standalone="no"?>
<!DOCTYPE svg PUBLIC "-//W3C//DTD SVG 1.1//EN" "http://www.w3.org/Graphics/SVG/1.1/DTD/svg11.dtd">
<svg version="1.1" xmlns="http://www.w3.org/2000/svg" viewBox="0 0 270.92890687387774 201.50243957728583" width="270.92890687387774" height="201.50243957728583"><!-- svg-source:excalidraw --><metadata></metadata><defs><style class="style-fonts">
      </style></defs><g stroke-linecap="round" transform="translate(49.88779004295054 10) rotate(0 89.75 89.75)"><path d="M82.4 0.77 C93.17 -1.69, 106.57 0.86, 117.32 4.15 C128.07 7.44, 138.3 13.07, 146.9 20.53 C155.5 27.98, 163.65 38.52, 168.9 48.86 C174.15 59.2, 177.42 71.26, 178.38 82.56 C179.35 93.86, 178.07 105.88, 174.68 116.66 C171.3 127.43, 165.17 138.55, 158.07 147.2 C150.97 155.86, 142.16 163.31, 132.09 168.57 C122.01 173.84, 109.19 177.79, 97.62 178.78 C86.06 179.78, 73.61 178, 62.7 174.55 C51.78 171.09, 40.72 165.24, 32.13 158.07 C23.54 150.9, 16.32 141.67, 11.17 131.53 C6.02 121.39, 2.45 108.56, 1.21 97.24 C-0.03 85.91, 0.52 74.32, 3.74 63.58 C6.96 52.84, 13.12 41.61, 20.52 32.81 C27.92 24, 37.2 16.16, 48.13 10.77 C59.06 5.37, 78.6 2.02, 86.12 0.46 C93.63 -1.11, 93.08 0.1, 93.23 1.4 M94.3 0.16 C105.54 -0.73, 118.26 3.23, 128.76 8.11 C139.25 13, 149.66 21.15, 157.29 29.47 C164.92 37.8, 170.99 47.3, 174.55 58.08 C178.11 68.86, 179.5 82.56, 178.66 94.15 C177.82 105.73, 174.34 117.03, 169.51 127.6 C164.67 138.16, 158.07 149.52, 149.66 157.53 C141.25 165.54, 129.94 171.97, 119.06 175.66 C108.17 179.35, 95.85 180.4, 84.35 179.65 C72.85 178.89, 60.02 175.99, 50.05 171.14 C40.09 166.29, 32.04 158.99, 24.57 150.56 C17.11 142.13, 9.43 131.29, 5.28 120.56 C1.14 109.84, -0.74 97.66, -0.3 86.23 C0.14 74.8, 2.98 62.28, 7.92 51.98 C12.86 41.69, 20.55 32.07, 29.35 24.48 C38.15 16.9, 49.88 10.59, 60.73 6.47 C71.58 2.35, 88.73 0.55, 94.47 -0.22 C100.21 -0.99, 95.25 0.07, 95.15 1.85" stroke="none" stroke-width="0" fill="#f8f9fa"></path><path d="M81.24 -0.56 C91.98 -2.95, 104.97 1.32, 115.89 4.87 C126.82 8.41, 137.88 13.51, 146.78 20.7 C155.68 27.88, 163.8 37.99, 169.28 47.96 C174.77 57.93, 178.54 69.13, 179.7 80.5 C180.86 91.87, 179.58 105.23, 176.23 116.18 C172.88 127.13, 167.07 137.48, 159.62 146.2 C152.17 154.91, 141.71 163.02, 131.54 168.48 C121.37 173.94, 109.83 177.93, 98.62 178.94 C87.4 179.96, 75.31 178.03, 64.25 174.58 C53.19 171.13, 41.22 165.49, 32.27 158.25 C23.33 151.01, 15.82 141.02, 10.58 131.14 C5.34 121.26, 1.87 110.18, 0.85 98.99 C-0.16 87.79, 1.17 75.05, 4.49 63.96 C7.81 52.88, 13.62 41.33, 20.79 32.5 C27.96 23.67, 35.75 16.53, 47.51 11 C59.26 5.48, 82.44 0.63, 91.32 -0.65 C100.21 -1.92, 100.88 1.72, 100.81 3.36 M73.94 0.95 C84.08 -2.57, 96.69 -1.08, 107.95 1.19 C119.21 3.45, 132.01 7.81, 141.53 14.54 C151.04 21.27, 158.86 31.77, 165.02 41.56 C171.17 51.36, 176.3 62.31, 178.46 73.31 C180.63 84.31, 180.57 96.24, 177.99 107.54 C175.4 118.85, 169.32 131.48, 162.95 141.16 C156.59 150.85, 149.03 159.59, 139.8 165.65 C130.56 171.71, 119.17 175.72, 107.55 177.52 C95.93 179.32, 81.47 178.83, 70.09 176.48 C58.71 174.12, 48.63 169.82, 39.26 163.42 C29.9 157.02, 20.29 147.76, 13.88 138.07 C7.48 128.39, 2.59 116.29, 0.84 105.33 C-0.91 94.37, 0.92 83.33, 3.39 72.32 C5.86 61.32, 9.3 48.94, 15.67 39.31 C22.03 29.68, 32.2 20.74, 41.58 14.55 C50.96 8.36, 66.83 4, 71.93 2.2 C77.04 0.39, 71.86 2.55, 72.19 3.72" stroke="#1e1e1e" stroke-width="2" fill="none"></path></g><g stroke-linecap="round" transform="translate(72.38779004295054 31.5) rotate(0 68 68)"><path d="M99.65 8.21 C108.28 11.47, 116.57 18.74, 122.5 26.37 C128.42 34, 133.26 44.3, 135.19 53.99 C137.12 63.69, 136.77 75.02, 134.08 84.54 C131.38 94.05, 125.4 103.49, 119.03 111.06 C112.67 118.64, 104.68 125.72, 95.89 129.99 C87.1 134.25, 76.08 136.88, 66.3 136.67 C56.53 136.46, 45.92 133.37, 37.25 128.72 C28.58 124.06, 20.35 116.76, 14.29 108.75 C8.22 100.75, 2.94 90.23, 0.87 80.69 C-1.2 71.14, -0.58 60.83, 1.85 51.51 C4.27 42.19, 9.13 32.36, 15.44 24.77 C21.75 17.17, 30.7 10.08, 39.72 5.94 C48.75 1.8, 59.07 -0.48, 69.59 -0.06 C80.11 0.37, 97.14 6.55, 102.85 8.49 C108.57 10.43, 104.62 10.63, 103.89 11.58 M65.66 1.33 C74.96 -0.37, 85.22 1.49, 94.36 5.12 C103.49 8.74, 113.76 15.53, 120.47 23.07 C127.17 30.61, 132.04 40.99, 134.57 50.34 C137.1 59.7, 137.5 69.3, 135.63 79.2 C133.76 89.09, 129.44 101.64, 123.36 109.71 C117.29 117.78, 108.15 123.23, 99.16 127.63 C90.17 132.03, 79.36 135.69, 69.43 136.1 C59.5 136.51, 48.36 134.05, 39.55 130.11 C30.75 126.16, 22.69 119.94, 16.58 112.44 C10.48 104.94, 5.32 94.63, 2.92 85.12 C0.52 75.61, 0.41 65.19, 2.18 55.36 C3.95 45.54, 7.99 34.1, 13.54 26.18 C19.08 18.26, 27.04 12.3, 35.46 7.85 C43.88 3.4, 59.11 0.34, 64.05 -0.52 C69 -1.39, 65.01 1.19, 65.13 2.65" stroke="#1e1e1e" stroke-width="2" fill="none"></path></g><g stroke-linecap="round"><g transform="translate(243.81422365881383 182.94462551908975) rotate(0 8.143896629185463 -73.2950696626686)" fill-rule="evenodd"><path d="M-2.32 0.27 C-2.94 -21.56, -2.87 -105.5, -2.15 -131.07 C-1.44 -156.64, 0.68 -150.12, 1.97 -153.14 C3.26 -156.16, 2.86 -162.98, 5.59 -149.18 C8.32 -135.39, 17.97 -85.29, 18.33 -70.36 C18.68 -55.43, 9.45 -71.25, 7.72 -59.63 C5.99 -48.01, 8.48 -11.96, 7.93 -0.64 C7.39 10.67, 5.73 7.84, 4.46 8.27 C3.2 8.7, 0.97 3.65, 0.33 1.93" stroke="none" stroke-width="0" fill="#f8f9fa" fill-rule="evenodd"></path><path d="M0.21 0.53 C0.22 -20.99, 0.67 -103.82, 0.74 -129.7 C0.81 -155.58, -0.54 -151.29, 0.61 -154.72 C1.75 -158.16, 5.15 -163.85, 7.63 -150.32 C10.11 -136.8, 15.41 -88.94, 15.47 -73.56 C15.53 -58.18, 9.09 -70.28, 7.98 -58.03 C6.87 -45.78, 9.37 -11.1, 8.83 -0.07 C8.29 10.96, 6.39 8.34, 4.72 8.16 C3.06 7.99, -0.32 0.32, -1.16 -1.11 M-1.15 -0.23 C-1.26 -21.53, 0.08 -102.74, 0.3 -128.32 C0.51 -153.89, -1.15 -150.19, 0.16 -153.69 C1.47 -157.19, 5.31 -162.66, 8.14 -149.31 C10.96 -135.96, 16.99 -88.6, 17.11 -73.6 C17.24 -58.6, 10.22 -71.36, 8.9 -59.32 C7.58 -47.27, 10.07 -12.57, 9.19 -1.33 C8.31 9.91, 5.09 7.81, 3.6 8.13 C2.1 8.44, 0.77 2.11, 0.22 0.58" stroke="#343a40" stroke-width="2" fill="none"></path></g></g><mask></mask><g stroke-linecap="round"><g transform="translate(24.538780808766433 173.46178807381733) rotate(0 -1.0767526518263821 -66.5433138828734)" fill-rule="evenodd"><path d="M-1.98 -1.66 C-1.8 -15.75, 0.43 -70.43, -0.73 -85.98 C-1.88 -101.54, -7.04 -91.14, -8.91 -94.96 C-10.78 -98.78, -11.42 -101.2, -11.95 -108.91 C-12.49 -116.62, -13.38 -140.85, -12.11 -141.23 C-10.84 -141.6, -6 -111.53, -4.32 -111.15 C-2.64 -110.77, -3.46 -139.48, -2.05 -138.93 C-0.64 -138.37, 2.47 -107.45, 4.16 -107.81 C5.84 -108.17, 6.73 -141.7, 8.07 -141.07 C9.4 -140.45, 12.19 -113.54, 12.15 -104.08 C12.1 -94.63, 8.06 -102.08, 7.77 -84.32 C7.49 -66.56, 11.44 -13.13, 10.46 2.47 C9.47 18.08, 3.82 9.69, 1.84 9.33 C-0.14 8.96, -1.25 2.17, -1.43 0.27" stroke="none" stroke-width="0" fill="#f8f9fa" fill-rule="evenodd"></path><path d="M-0.29 -0.76 C-0.33 -14.44, 0.86 -66.66, -0.32 -82.68 C-1.51 -98.7, -5.39 -92.72, -7.4 -96.86 C-9.4 -101, -11.4 -99.9, -12.36 -107.5 C-13.33 -115.09, -14.71 -141.95, -13.18 -142.44 C-11.65 -142.94, -4.94 -110.65, -3.2 -110.47 C-1.46 -110.29, -3.94 -141.59, -2.74 -141.38 C-1.53 -141.17, 2.67 -109.52, 4.01 -109.23 C5.35 -108.94, 3.87 -140.34, 5.32 -139.65 C6.76 -138.96, 12.5 -114.03, 12.67 -105.1 C12.84 -96.16, 6.54 -103.56, 6.33 -86.01 C6.12 -68.47, 12.01 -15.87, 11.41 0.16 C10.8 16.19, 4.6 10.29, 2.71 10.16 C0.83 10.04, 0.69 1.03, 0.09 -0.59 M1.76 1.46 C1.54 -12.5, 0.18 -68.1, -1.44 -84.34 C-3.07 -100.58, -6.13 -92.24, -7.98 -95.97 C-9.82 -99.7, -11.48 -99.12, -12.5 -106.75 C-13.52 -114.38, -15.38 -141.53, -14.11 -141.77 C-12.84 -142, -6.93 -108, -4.86 -108.19 C-2.8 -108.37, -3.04 -142.59, -1.72 -142.88 C-0.4 -143.17, 1.61 -110.24, 3.05 -109.94 C4.5 -109.64, 5.15 -141.88, 6.93 -141.09 C8.71 -140.29, 13.8 -114.44, 13.76 -105.16 C13.71 -95.89, 6.73 -103.43, 6.65 -85.44 C6.58 -67.44, 13.94 -13.02, 13.31 2.8 C12.68 18.62, 5.17 10.12, 2.86 9.47 C0.54 8.82, 0.08 0.47, -0.57 -1.1" stroke="#343a40" stroke-width="2" fill="none"></path></g></g><mask></mask></svg>